<?xml version="1.0" encoding="iso-8859-1"?>
<!-- Uploaded to: SVG Repo, www.svgrepo.com, Generator: SVG Repo Mixer Tools -->
<svg height="800px" width="800px" version="1.1" id="Layer_1" xmlns="http://www.w3.org/2000/svg" xmlns:xlink="http://www.w3.org/1999/xlink" 
	 viewBox="0 0 512 512" xml:space="preserve">
<path style="fill:#F7D04A;" d="M280.706,110.625V50.99c0-4.355-3.529-7.885-7.885-7.885h-33.643c-4.356,0-7.885,3.53-7.885,7.885
	v101.104c0,2.106,0.843,4.125,2.34,5.607c1.477,1.46,3.47,2.278,5.545,2.278c0.028,0,0.058,0,0.087,0
	c6.357-0.071,16.06-0.176,16.734-0.176c12.804,0,17.347,9.345,17.347,17.347c0,9.565-7.782,17.347-17.347,17.347
	c-9.565,0-17.347-7.782-17.347-17.347c0-4.355-3.529-7.885-7.885-7.885H192.92c-4.356,0-7.885,3.53-7.885,7.885
	c0,39.131,31.834,70.965,70.965,70.965s70.965-31.834,70.965-70.965C326.965,147.385,308.225,120.844,280.706,110.625z"/>
<path style="fill:#F3B41B;" d="M280.706,50.99c0-4.355-3.529-7.885-7.885-7.885h-33.643c-4.356,0-7.885,3.53-7.885,7.885v59.225
	l3.68,8.061h42.053l3.68-8.061V50.99z"/>
<path style="fill:#F7D04A;" d="M280.706,110.625v-0.409h-49.413v41.878c0,2.106,0.843,4.125,2.34,5.607
	c1.477,1.46,3.47,2.278,5.545,2.278c0.028,0,0.058,0,0.087,0c6.357-0.071,16.06-0.176,16.734-0.176
	c12.804,0,17.347,9.345,17.347,17.347c0,9.565-7.782,17.347-17.347,17.347c-9.565,0-17.347-7.782-17.347-17.347
	c0-4.355-3.529-7.885-7.885-7.885H192.92c-4.356,0-7.885,3.53-7.885,7.885c0,39.131,31.834,70.965,70.965,70.965
	s70.965-31.834,70.965-70.965C326.965,147.385,308.225,120.844,280.706,110.625z"/>
<path style="fill:#EB6836;" d="M298.053,1.051h-84.107c-4.356,0-7.885,3.53-7.885,7.885v67.285c0,2.637,1.317,5.099,3.511,6.56
	l25.232,16.821c1.294,0.863,2.818,1.325,4.374,1.325h33.643c1.556,0,3.079-0.46,4.374-1.325l25.232-16.821
	c2.194-1.462,3.511-3.924,3.511-6.56V8.936C305.938,4.582,302.409,1.051,298.053,1.051z"/>
<path style="fill:#C74B38;" d="M213.947,1.051c-4.356,0-7.885,3.53-7.885,7.885v67.285c0,2.637,1.317,5.099,3.511,6.56
	l25.232,16.821c1.294,0.863,2.818,1.325,4.374,1.325h0.35V1.051H213.947z"/>
<polygon style="fill:#999999;" points="504.115,362.71 504.115,312.246 96.197,312.246 96.197,493.076 504.115,493.076 
	504.115,442.612 449.446,442.612 449.446,362.71 "/>
<g>
	<polygon style="fill:#B2B2B2;" points="449.446,442.612 449.446,421.585 96.197,421.585 96.197,493.076 504.115,493.076 
		504.115,442.612 	"/>
	<polygon style="fill:#B2B2B2;" points="504.115,362.71 504.115,312.246 96.197,312.246 96.197,384.087 449.446,384.087 
		449.446,362.71 	"/>
</g>
<g>
	<path style="fill:#CCCCCC;" d="M504.115,304.361H184.509c-4.356,0-7.885,3.53-7.885,7.885v50.464c0,4.355,3.529,7.885,7.885,7.885
		h319.606c4.356,0,7.885-3.53,7.885-7.885v-50.464C512,307.892,508.471,304.361,504.115,304.361z"/>
	<path style="fill:#CCCCCC;" d="M504.115,434.727H184.509c-4.356,0-7.885,3.53-7.885,7.885v50.464c0,4.355,3.529,7.885,7.885,7.885
		h319.606c4.356,0,7.885-3.53,7.885-7.885v-50.464C512,438.257,508.471,434.727,504.115,434.727z"/>
</g>
<path style="fill:#666666;" d="M360.088,302.394l-96.203-42.089v-74.745c0-4.355-3.529-7.885-7.885-7.885s-7.885,3.53-7.885,7.885
	v74.745l-96.203,42.089c-3.99,1.745-5.809,6.395-4.063,10.384c1.745,3.989,6.393,5.808,10.384,4.063L256,274.068l93.043,40.707
	v188.289c0,4.355,3.529,7.885,7.885,7.885c4.356,0,7.885-3.53,7.885-7.885V309.618C364.813,306.486,362.959,303.65,360.088,302.394z
	"/>
<path style="fill:#E5E5E5;" d="M184.509,370.595c4.356,0,7.885-3.53,7.885-7.885v-50.464c0-4.355-3.529-7.885-7.885-7.885H7.885
	c-4.356,0-7.885,3.53-7.885,7.885v50.464c0,4.355,3.529,7.885,7.885,7.885h46.784v64.131H7.885c-4.356,0-7.885,3.53-7.885,7.885
	v50.464c0,4.355,3.529,7.885,7.885,7.885h176.624c4.356,0,7.885-3.53,7.885-7.885v-50.464c0-4.355-3.529-7.885-7.885-7.885h-46.784
	v-64.131H184.509z"/>
<path style="fill:#CCCCCC;" d="M7.885,304.361c-4.356,0-7.885,3.53-7.885,7.885v50.464c0,4.355,3.529,7.885,7.885,7.885h46.784
	v64.131H7.885c-4.356,0-7.885,3.53-7.885,7.885v50.464c0,4.355,3.529,7.885,7.885,7.885h136.678l-84.455-196.6H7.885z"/>
</svg>