<?xml version="1.0" encoding="iso-8859-1"?>
<!-- Uploaded to: SVG Repo, www.svgrepo.com, Generator: SVG Repo Mixer Tools -->
<svg version="1.1" id="Layer_1" xmlns="http://www.w3.org/2000/svg" xmlns:xlink="http://www.w3.org/1999/xlink" 
	 viewBox="0 0 511.999 511.999" xml:space="preserve">
<path style="fill:#F3B41B;" d="M500.299,227.745L284.226,11.673c-15.565-15.565-40.889-15.564-56.453,0L11.701,227.745
	c-15.565,15.564-15.565,40.889,0,56.453L227.772,500.27c7.782,7.782,18.005,11.673,28.227,11.673
	c10.222,0,20.444-3.891,28.227-11.673l216.073-216.072C515.863,268.634,515.863,243.309,500.299,227.745z"/>
<g>
	<path style="fill:#F7D04A;" d="M85.089,244.681l159.62-159.62c6.236-6.236,16.345-6.236,22.581,0l159.621,159.62
		c6.236,6.236,6.236,16.345,0,22.581L267.29,426.882c-6.236,6.236-16.345,6.236-22.581,0l-159.62-159.62
		C78.853,261.027,78.853,250.917,85.089,244.681z"/>
	<path style="fill:#F7D04A;" d="M500.299,227.745L284.226,11.673c-15.565-15.565-40.889-15.564-56.453,0L11.701,227.745
		c-15.565,15.564-15.565,40.889,0,56.453L227.772,500.27c7.782,7.782,18.005,11.673,28.227,11.673
		c10.222,0,20.444-3.891,28.227-11.673l216.073-216.072C515.863,268.634,515.863,243.309,500.299,227.745z M255.999,480.009
		c-1.517,0-3.728-0.402-5.645-2.319L34.283,261.617c-3.069-3.069-3.069-8.221,0-11.29L250.354,34.254
		c3.068-3.068,8.223-3.068,11.291,0l216.073,216.073c3.113,3.113,3.113,8.177,0,11.29L261.645,477.689
		C259.728,479.607,257.517,480.009,255.999,480.009z"/>
</g>
<g>
	<polygon style="fill:#666666;" points="412.391,185 443.348,215.957 443.348,170.794 439.412,166.858 412.391,139.837 	"/>
	<polygon style="fill:#666666;" points="412.391,326.944 412.391,372.106 439.412,345.085 443.348,341.149 443.348,295.987 	"/>
	<polygon style="fill:#666666;" points="325.103,459.393 356.061,428.436 356.061,383.274 325.103,414.232 	"/>
	<polygon style="fill:#666666;" points="356.061,83.508 325.103,52.55 325.103,97.712 356.061,128.669 	"/>
	<polygon style="fill:#666666;" points="101.562,183.046 101.562,137.884 70.605,168.842 70.605,214.004 	"/>
	<polygon style="fill:#666666;" points="70.605,297.939 70.605,343.102 101.562,374.059 101.562,328.896 	"/>
	<polygon style="fill:#666666;" points="154.786,382.121 154.786,427.283 185.743,458.241 185.743,413.079 	"/>
	<path style="fill:#666666;" d="M255.999,31.935c1.518,0,3.729,0.402,5.646,2.32l9.833,9.833V3.114
		c-9.875-4.14-21.083-4.14-30.957,0v40.974l9.834-9.834C252.271,32.337,254.482,31.935,255.999,31.935z"/>
	<path style="fill:#666666;" d="M271.478,467.856l-9.833,9.833c-1.917,1.917-4.128,2.319-5.646,2.319
		c-1.517,0-3.728-0.402-5.645-2.319l-9.834-9.834v40.974l0,0c1.851,0.776,3.748,1.407,5.675,1.894
		c5.618,1.685,12.045,1.569,17.742,0.422c2.568-0.519,5.095-1.291,7.54-2.316v-40.972H271.478z"/>
	<polygon style="fill:#666666;" points="185.743,98.865 185.743,53.702 154.786,84.659 154.786,129.822 	"/>
</g>
<g>
	<polygon style="fill:#EB6836;" points="300.076,221.909 289.163,186.781 281.548,181.458 230.452,181.458 222.836,186.781 
		211.923,221.909 217.678,228.295 294.321,228.295 	"/>
	<path style="fill:#EB6836;" d="M263.623,104.576c-1.038-3.339-4.127-5.615-7.624-5.615c-3.497,0-6.587,2.276-7.624,5.615
		l-15.287,49.206l5.879,6.387h34.064l5.879-6.387L263.623,104.576z"/>
	<path style="fill:#EB6836;" d="M331.75,323.859l-18.61-59.904l-6.045-5.855h-102.19l-6.044,5.855l-18.61,59.904
		c-0.754,2.423-0.31,5.059,1.195,7.103c1.505,2.043,3.891,3.249,6.428,3.249h136.254c2.538,0,4.923-1.206,6.428-3.249
		C332.059,328.919,332.503,326.282,331.75,323.859z"/>
</g>
<g>
	<polygon style="fill:#FFFFFF;" points="300.076,221.909 211.923,221.909 198.86,263.956 313.14,263.956 	"/>
	<polygon style="fill:#FFFFFF;" points="289.163,186.781 278.911,153.782 233.088,153.782 222.836,186.781 	"/>
</g>
<path style="fill:#C74B38;" d="M192.245,285.245l-11.997,38.614c-0.754,2.423-0.31,5.059,1.195,7.103
	c1.505,2.043,3.891,3.249,6.428,3.249h136.254c2.538,0,4.923-1.206,6.428-3.249c1.504-2.043,1.948-4.679,1.195-7.103l-11.997-38.614
	"/>
<g>
	<path style="fill:#EB6836;" d="M170.841,296.955c-4.409,0-7.984,3.575-7.984,7.984v23.419c0,4.409,3.575,7.984,7.984,7.984h125.077
		l6.919-5.855V300.68l-6.919-3.726H170.841z"/>
	<path style="fill:#EB6836;" d="M341.158,296.955h-12.774l-8.516,3.726v29.806l8.516,5.855h12.774c4.41,0,7.984-3.575,7.984-7.984
		v-23.419C349.142,300.529,345.568,296.955,341.158,296.955z"/>
</g>
<rect x="295.915" y="296.959" style="fill:#FD9D7E;" width="32.467" height="39.386"/>
<path style="fill:#C74B38;" d="M170.841,296.955c-4.409,0-7.984,3.575-7.984,7.984v23.419c0,4.409,3.575,7.984,7.984,7.984h33.531
	v-39.386H170.841z"/>
</svg>